<svg xmlns="http://www.w3.org/2000/svg" width="100" height="100" viewBox="0 0 100 100"><defs><linearGradient id="sunGold" x1="0%" x2="100%" y1="0%" y2="100%"><stop offset="0%" style="stop-color:#fcd34d"/><stop offset="50%" style="stop-color:#f59e0b"/><stop offset="100%" style="stop-color:#d97706"/></linearGradient><linearGradient id="ruby" x1="50%" x2="50%" y1="0%" y2="100%"><stop offset="0%" style="stop-color:#f87171"/><stop offset="100%" style="stop-color:#dc2626"/></linearGradient></defs><rect width="84" height="84" x="8" y="8" fill="url(#sunGold)" rx="20"/><path fill="url(#ruby)" d="M44 8 L44 92 L56 92 L56 8 Z"/><path fill="url(#ruby)" d="M8 44 L92 44 L92 56 L8 56 Z"/><path fill="url(#ruby)" d="M50 44 Q28 44 24 28 Q20 12 36 16 Q52 20 50 44"/><path fill="url(#ruby)" d="M50 44 Q72 44 76 28 Q80 12 64 16 Q48 20 50 44"/><circle cx="50" cy="42" r="8" fill="#DC2626"/><circle cx="50" cy="42" r="4" fill="#F87171"/></svg>