<svg xmlns="http://www.w3.org/2000/svg" viewBox="0 0 100 100" width="100" height="100">
  <defs>
    <linearGradient id="sunGold" x1="0%" y1="0%" x2="100%" y2="100%">
      <stop offset="0%" style="stop-color:#FCD34D"/>
      <stop offset="50%" style="stop-color:#F59E0B"/>
      <stop offset="100%" style="stop-color:#D97706"/>
    </linearGradient>
    <linearGradient id="ruby" x1="50%" y1="0%" x2="50%" y2="100%">
      <stop offset="0%" style="stop-color:#F87171"/>
      <stop offset="100%" style="stop-color:#DC2626"/>
    </linearGradient>
  </defs>
  
  <!-- Rounded square background -->
  <rect x="8" y="8" width="84" height="84" rx="20" fill="url(#sunGold)"/>
  
  <!-- Gift ribbon cross -->
  <path d="M44 8 L44 92 L56 92 L56 8 Z" fill="url(#ruby)"/>
  <path d="M8 44 L92 44 L92 56 L8 56 Z" fill="url(#ruby)"/>
  
  <!-- Bow - two elegant curves -->
  <path 
    d="M50 44 Q28 44 24 28 Q20 12 36 16 Q52 20 50 44" 
    fill="url(#ruby)"
  />
  <path 
    d="M50 44 Q72 44 76 28 Q80 12 64 16 Q48 20 50 44" 
    fill="url(#ruby)"
  />
  
  <!-- Center knot -->
  <circle cx="50" cy="42" r="8" fill="#DC2626"/>
  <circle cx="50" cy="42" r="4" fill="#F87171"/>
</svg>
