<svg xmlns="http://www.w3.org/2000/svg" width="1200" height="630" fill="none" viewBox="0 0 1200 630"><defs><linearGradient id="bg" x1="0%" x2="100%" y1="0%" y2="100%"><stop offset="0%" style="stop-color:#0a0a0a"/><stop offset="100%" style="stop-color:#1a1a2e"/></linearGradient><linearGradient id="accent" x1="0%" x2="100%" y1="0%" y2="0%"><stop offset="0%" style="stop-color:#f59e0b"/><stop offset="100%" style="stop-color:#fbbf24"/></linearGradient><linearGradient id="sunGold" x1="0%" x2="100%" y1="0%" y2="100%"><stop offset="0%" style="stop-color:#fcd34d"/><stop offset="50%" style="stop-color:#f59e0b"/><stop offset="100%" style="stop-color:#d97706"/></linearGradient><linearGradient id="ruby" x1="50%" x2="50%" y1="0%" y2="100%"><stop offset="0%" style="stop-color:#f87171"/><stop offset="100%" style="stop-color:#dc2626"/></linearGradient></defs><rect width="1200" height="630" fill="url(#bg)"/><rect width="200" height="200" x="50" y="100" fill="none" stroke="#f59e0b" stroke-opacity=".1" stroke-width="1"/><rect width="140" height="140" x="80" y="130" fill="none" stroke="#f59e0b" stroke-opacity=".05" stroke-width="1"/><rect width="200" height="200" x="950" y="330" fill="none" stroke="#f59e0b" stroke-opacity=".1" stroke-width="1"/><rect width="140" height="140" x="980" y="360" fill="none" stroke="#f59e0b" stroke-opacity=".05" stroke-width="1"/><rect width="8" height="8" x="300" y="80" fill="#f59e0b" fill-opacity=".3"/><rect width="6" height="6" x="900" y="150" fill="#f59e0b" fill-opacity=".2"/><rect width="10" height="10" x="150" y="450" fill="#f59e0b" fill-opacity=".25"/><g transform="translate(510, 120) scale(1.8)"><rect width="84" height="84" x="8" y="8" fill="url(#sunGold)" rx="20"/><path fill="url(#ruby)" d="M44 8 L44 92 L56 92 L56 8 Z"/><path fill="url(#ruby)" d="M8 44 L92 44 L92 56 L8 56 Z"/><path fill="url(#ruby)" d="M50 44 Q28 44 24 28 Q20 12 36 16 Q52 20 50 44"/><path fill="url(#ruby)" d="M50 44 Q72 44 76 28 Q80 12 64 16 Q48 20 50 44"/><circle cx="50" cy="42" r="8" fill="#DC2626"/><circle cx="50" cy="42" r="4" fill="#F87171"/></g><text x="600" y="380" fill="#fff" font-family="system-ui, -apple-system, sans-serif" font-size="72" font-weight="700" text-anchor="middle">Moi</text><text x="600" y="440" fill="#fff" fill-opacity=".7" font-family="system-ui, -apple-system, sans-serif" font-size="28" text-anchor="middle">Track every gift. Never miss a மொய்</text><text x="600" y="550" fill="#fff" fill-opacity=".4" font-family="system-ui, -apple-system, sans-serif" font-size="22" letter-spacing=".15em" text-anchor="middle">getmoi.in</text></svg>